<svg id="Layer_1" height="512" viewBox="0 0 512 512" width="512" xmlns="http://www.w3.org/2000/svg" data-name="Layer 1"><path d="m337.509 326.7a10.812 10.812 0 1 0 7.648 3.163 10.786 10.786 0 0 0 -7.648-3.163z"/><path d="m289.488 278.676a10.812 10.812 0 1 0 7.649 3.163 10.78 10.78 0 0 0 -7.649-3.163z"/><path d="m241.467 230.655a10.812 10.812 0 1 0 7.649 3.163 10.787 10.787 0 0 0 -7.649-3.163z"/><path d="m52.915 75.499h56.257v11.089h-56.257z" transform="matrix(.707 -.707 .707 .707 -33.569 81.043)"/><path d="m111.925 72.145-39.78 39.78 64.65 64.65 39.78-39.78zm12.968 73.565a20.816 20.816 0 1 1 14.719-6.1 20.679 20.679 0 0 1 -14.719 6.1z"/><path d="m25.878 31.315h56.257v45.384h-56.257z" transform="matrix(.707 -.707 .707 .707 -22.37 54.006)"/><path d="m412.94 435.523h56.257v11.089h-56.257z" transform="matrix(.707 -.707 .707 .707 -182.696 441.068)"/><path d="m385.529 374.717a10.812 10.812 0 1 0 7.649 3.163 10.78 10.78 0 0 0 -7.649-3.163z"/><path d="m398.028 420.611h56.257v11.089h-56.257z" transform="matrix(.707 -.707 .707 .707 -176.519 426.156)"/><path d="m434.921 447.507h56.257v31.084h-56.257z" transform="matrix(.707 -.707 .707 .707 -191.801 463.05)"/><path d="m183.645 143.866-39.779 39.78 251.409 251.408 39.779-39.78zm72.542 112.321a20.817 20.817 0 1 1 6.1-14.72 20.682 20.682 0 0 1 -6.1 14.72zm48.021 48.02a20.815 20.815 0 1 1 6.1-14.719 20.677 20.677 0 0 1 -6.1 14.719zm48.021 48.021a20.819 20.819 0 1 1 6.1-14.719 20.682 20.682 0 0 1 -6.1 14.719zm33.3 54.119a20.82 20.82 0 1 1 14.72-6.1 20.679 20.679 0 0 1 -14.72 6.1z"/><path d="m124.893 114.075a10.816 10.816 0 1 0 7.648 3.168 10.745 10.745 0 0 0 -7.648-3.168z"/></svg>