<?xml version="1.0" encoding="iso-8859-1"?>
<!-- Generator: Adobe Illustrator 19.0.0, SVG Export Plug-In . SVG Version: 6.00 Build 0)  -->
<svg version="1.1" id="Capa_1" xmlns="http://www.w3.org/2000/svg" xmlns:xlink="http://www.w3.org/1999/xlink" x="0px" y="0px"
	 viewBox="0 0 512 512" style="enable-background:new 0 0 512 512;" xml:space="preserve">
<path style="fill:#B35C4B;" d="M498.794,55.632l-42.426-42.426c-17.607-17.607-46.032-17.607-63.64,0l-23.213,23.213
	c-5.939,5.939-5.94,15.273,0,21.213l84.853,84.853c5.94,5.94,15.274,5.939,21.213,0l23.213-23.213
	C516.402,101.664,516.402,73.239,498.794,55.632z"/>
<path style="fill:#8B432D;" d="M498.794,119.272l-23.213,23.213c-5.939,5.939-15.273,5.94-21.213,0l-42.426-42.426l65.64-65.64
	l21.213,21.213C516.402,73.239,516.402,101.664,498.794,119.272z"/>
<path style="fill:#B35C4B;" d="M140.484,456.369l-84.853-84.853c-5.94-5.94-15.273-5.94-21.213,0l-21.213,21.213
	c-17.606,17.606-17.607,46.032,0,63.64l42.426,42.426c17.607,17.607,46.034,17.606,63.64,0l21.213-21.213
	C146.425,471.641,146.425,462.309,140.484,456.369z"/>
<path style="fill:#8B432D;" d="M140.484,477.582l-21.213,21.213c-17.606,17.606-46.032,17.607-63.64,0l-21.213-21.213l63.64-63.64
	l42.426,42.426C146.425,462.309,146.425,471.641,140.484,477.582z"/>
<path style="fill:#E5E5E5;" d="M454.368,227.338L221.023,460.683l-10.607,31.82l-6.292,6.292c-17.606,17.606-46.032,17.607-63.64,0
	L13.205,371.516c-17.607-17.607-17.606-46.034,0-63.64L305.876,15.205c17.607-17.607,46.032-17.607,63.64,0l127.279,127.279
	c17.607,17.607,17.607,46.032,0,63.64l-10.607,10.607L454.368,227.338z"/>
<path style="fill:#C8C6CD;" d="M454.368,227.338L221.023,460.683l-10.607,31.82l-6.292,6.292c-17.606,17.606-46.032,17.607-63.64,0
	l-63.64-63.64l356.31-356.31l63.64,63.64c17.607,17.607,17.607,46.032,0,63.64l-10.607,10.607L454.368,227.338z"/>
<g>
	<circle style="fill:#AEADB3;" cx="337.69" cy="89.45" r="15"/>
	<circle style="fill:#AEADB3;" cx="83.14" cy="344.01" r="15"/>
</g>
<path style="fill:#8B432D;" d="M411.942,163.698L157.383,418.256c-5.857,5.857-5.857,15.356,0,21.213l53.033,53.033L486.188,216.73
	l-53.033-53.033C427.297,157.84,417.8,157.839,411.942,163.698z"/>
<path style="fill:#3C3A41;" d="M189.203,428.863l21.213,21.213l233.345-233.345l-21.213-21.213L189.203,428.863z"/>
<g>
	<path style="fill:#8B432D;" d="M411.942,269.764l-42.426-42.426c-5.863-5.863-5.863-15.351,0-21.213
		c5.863-5.863,15.351-5.863,21.213,0l42.426,42.426c5.863,5.863,5.863,15.351,0,21.213
		C427.292,275.627,417.804,275.627,411.942,269.764z"/>
	<path style="fill:#8B432D;" d="M369.515,312.19l-42.426-42.426c-5.863-5.863-5.863-15.351,0-21.213
		c5.863-5.863,15.351-5.863,21.213,0l42.426,42.426c5.863,5.863,5.863,15.351,0,21.213S375.378,318.053,369.515,312.19z"/>
	<path style="fill:#8B432D;" d="M327.089,354.617l-42.426-42.426c-5.863-5.863-5.863-15.351,0-21.213s15.351-5.863,21.213,0
		l42.426,42.426c5.863,5.863,5.863,15.351,0,21.213S332.952,360.479,327.089,354.617z"/>
	<path style="fill:#8B432D;" d="M284.662,397.043l-42.426-42.426c-5.863-5.863-5.863-15.351,0-21.213
		c5.863-5.863,15.351-5.863,21.213,0l42.426,42.426c5.863,5.863,5.863,15.351,0,21.213S290.525,402.906,284.662,397.043z"/>
	<path style="fill:#8B432D;" d="M242.236,439.47l-42.426-42.426c-5.863-5.863-5.863-15.351,0-21.213
		c5.863-5.863,15.351-5.863,21.213,0l42.426,42.426c5.863,5.863,5.863,15.351,0,21.213
		C257.587,445.332,248.099,445.332,242.236,439.47z"/>
</g>
<g>
</g>
<g>
</g>
<g>
</g>
<g>
</g>
<g>
</g>
<g>
</g>
<g>
</g>
<g>
</g>
<g>
</g>
<g>
</g>
<g>
</g>
<g>
</g>
<g>
</g>
<g>
</g>
<g>
</g>
</svg>
